<?xml version="1.0" encoding="UTF-8" standalone="no"?>
<!DOCTYPE svg PUBLIC "-//W3C//DTD SVG 1.1//EN" "http://www.w3.org/Graphics/SVG/1.1/DTD/svg11.dtd">
<svg version="1.1" xmlns="http://www.w3.org/2000/svg" xmlns:xlink="http://www.w3.org/1999/xlink" preserveAspectRatio="xMidYMid meet" viewBox="0 0 640 640" width="640" height="640"><defs><path d="M62.77 26.93C237.63 26.92 412.47 26.9 587.32 26.93C577.7 135.68 568.23 244.42 558.2 353.14C552.25 422.62 546.11 492.11 539.63 561.55C502.32 571.43 465.37 582.7 428.08 592.63C393.82 602.68 359.28 611.78 325.01 621.76C324.91 621.76 324.1 621.76 323.99 621.76C291.38 612.06 258.44 603.52 225.82 593.82C187.33 583.45 149.17 571.88 110.66 561.55C105.64 509.5 101.12 457.42 96.65 405.34C88.22 309.12 79.06 212.96 70.95 116.72C68.15 87.76 66.14 58.7 62.77 29.8C62.77 29.61 62.77 28.65 62.77 26.93M325.5 132.5C265.52 132.29 205.52 132.45 145.53 132.52C146.56 152.79 149.28 172.93 152.07 193.04C207.88 195.11 263.77 192.96 319.57 194.63C270.75 216.54 221.33 237.16 172.29 258.61C168.08 260.48 163.58 261.89 159.82 264.62C160.24 286.89 163.83 309.04 165.41 331.27C195.16 331.16 224.89 330.68 254.63 330.64C278.47 330.52 302.32 330.99 326.16 330.47C325.02 367.09 326.51 403.76 325.39 440.38C309.35 438 293.51 434.43 277.53 431.59C264.93 428.84 252.02 427.41 239.61 423.81C237.84 406.23 236.61 388.6 235.05 371.01C231.46 369.9 227.65 370.01 223.94 369.95C205.92 370.05 187.88 369.89 169.85 370.16C171.61 403.98 174.65 437.74 179.82 471.23C197.6 475.87 215.4 480.41 233.15 485.25C260.33 492.65 287.85 498.8 315.08 506.08C318.32 506.77 321.59 507.96 324.95 507.69C326.76 529.93 325.36 552.31 325.7 574.61C331.98 573.59 338.15 572.04 344.21 570.17C395.75 556.17 447.23 541.91 498.74 527.78C501.3 507.52 502.5 487.12 504.53 466.81C509.88 405.08 515.29 343.35 520.9 281.63C527.49 211.03 533.18 140.34 539.81 69.74C468.49 69.8 397.18 69.6 325.87 69.83C325.5 90.72 326.14 111.63 325.5 132.5Z" id="auNY8mI5j"></path><path d="M539.81 69.74C533.18 140.34 527.49 211.03 520.9 281.63C515.29 343.35 509.88 405.08 504.53 466.81C502.5 487.12 501.3 507.52 498.74 527.78C447.23 541.91 395.75 556.17 344.21 570.17C338.15 572.04 331.98 573.59 325.7 574.61C325.36 552.31 326.76 529.93 324.95 507.69C325.41 507.59 326.34 507.41 326.8 507.32C374.74 495.29 422.35 482.04 470.18 469.58C476.22 401.73 482.93 333.92 487.18 265.94C446.51 266.16 405.82 266.04 365.15 266.2C359.22 266.24 353.3 266.2 347.4 265.77C369.29 254.51 392.31 245.58 414.78 235.52C436.35 225.74 458.17 216.58 479.82 206.99C483.99 205.07 488.44 203.47 492.11 200.62C493.55 195.32 493.48 189.78 494.04 184.36C495.29 167.17 497.5 150.08 498.33 132.87C440.72 132.41 383.12 132.81 325.5 132.5C326.14 111.63 325.5 90.72 325.87 69.83C397.18 69.6 468.49 69.8 539.81 69.74Z" id="a3s5yhYzN5"></path><path d="M409.63 330.56C408.08 359 405.71 387.4 404.24 415.84C387.19 421.41 369.87 426.12 352.68 431.28C343.52 434.07 334.11 436.28 325.39 440.38C326.51 403.76 325.02 367.09 326.16 330.47C353.97 329.99 381.8 330.75 409.63 330.56Z" id="k4UMS2p5Qv"></path><path d="M325.5 132.5C326.28 198.5 325.3 264.5 326.16 330.47C302.32 330.99 278.47 330.52 254.63 330.64C224.89 330.68 195.16 331.16 165.41 331.27C163.83 309.04 160.24 286.89 159.82 264.62C163.58 261.89 168.08 260.48 172.29 258.61C221.33 237.16 270.75 216.54 319.57 194.63C263.77 192.96 207.88 195.11 152.07 193.04C149.28 172.93 146.56 152.79 145.53 132.52C205.52 132.45 265.52 132.29 325.5 132.5Z" id="fjPwvIr8B"></path><path d="M223.94 369.95C227.65 370.01 231.46 369.9 235.05 371.01C236.61 388.6 237.84 406.23 239.61 423.81C252.02 427.41 264.93 428.84 277.53 431.59C293.51 434.43 309.35 438 325.39 440.38C326.93 462.67 324.24 485.11 326.8 507.32C326.34 507.41 325.41 507.59 324.95 507.69C321.59 507.96 318.32 506.77 315.08 506.08C287.85 498.8 260.33 492.65 233.15 485.25C215.4 480.41 197.6 475.87 179.82 471.23C174.65 437.74 171.61 403.98 169.85 370.16C187.88 369.89 205.92 370.05 223.94 369.95Z" id="c7bPuJdW0"></path><path d="M498.33 132.87C497.5 150.08 495.29 167.17 494.04 184.36C493.48 189.78 493.55 195.32 492.11 200.62C488.44 203.47 483.99 205.07 479.82 206.99C458.17 216.58 436.35 225.74 414.78 235.52C392.31 245.58 369.29 254.51 347.4 265.77C353.3 266.2 359.22 266.24 365.15 266.2C405.82 266.04 446.51 266.16 487.18 265.94C482.93 333.92 476.22 401.73 470.18 469.58C422.35 482.04 374.74 495.29 326.8 507.32C324.24 485.11 326.93 462.67 325.39 440.38C334.11 436.28 343.52 434.07 352.68 431.28C369.87 426.12 387.19 421.41 404.24 415.84C405.71 387.4 408.08 359 409.63 330.56C381.8 330.75 353.97 329.99 326.16 330.47C325.3 264.5 326.28 198.5 325.5 132.5C383.12 132.81 440.72 132.41 498.33 132.87Z" id="b18OsbDPzn"></path></defs><g><g><g><use xlink:href="#auNY8mI5j" opacity="1" fill="#0170ba" fill-opacity="1"></use><g><use xlink:href="#auNY8mI5j" opacity="1" fill-opacity="0" stroke="#000000" stroke-width="1" stroke-opacity="0"></use></g></g><g><use xlink:href="#a3s5yhYzN5" opacity="1" fill="#29a9df" fill-opacity="1"></use><g><use xlink:href="#a3s5yhYzN5" opacity="1" fill-opacity="0" stroke="#000000" stroke-width="1" stroke-opacity="0"></use></g></g><g><use xlink:href="#k4UMS2p5Qv" opacity="1" fill="#29a9df" fill-opacity="1"></use><g><use xlink:href="#k4UMS2p5Qv" opacity="1" fill-opacity="0" stroke="#000000" stroke-width="1" stroke-opacity="0"></use></g></g><g><use xlink:href="#fjPwvIr8B" opacity="1" fill="#cfcfcf" fill-opacity="1"></use><g><use xlink:href="#fjPwvIr8B" opacity="1" fill-opacity="0" stroke="#000000" stroke-width="1" stroke-opacity="0"></use></g></g><g><use xlink:href="#c7bPuJdW0" opacity="1" fill="#cfcfcf" fill-opacity="1"></use><g><use xlink:href="#c7bPuJdW0" opacity="1" fill-opacity="0" stroke="#000000" stroke-width="1" stroke-opacity="0"></use></g></g><g><use xlink:href="#b18OsbDPzn" opacity="1" fill="#ffffff" fill-opacity="1"></use><g><use xlink:href="#b18OsbDPzn" opacity="1" fill-opacity="0" stroke="#000000" stroke-width="1" stroke-opacity="0"></use></g></g></g></g></svg>