<?xml version="1.0" encoding="UTF-8" standalone="no"?>
<!DOCTYPE svg PUBLIC "-//W3C//DTD SVG 1.1//EN" "http://www.w3.org/Graphics/SVG/1.1/DTD/svg11.dtd">
<svg version="1.1" xmlns="http://www.w3.org/2000/svg" xmlns:xlink="http://www.w3.org/1999/xlink" preserveAspectRatio="xMidYMid meet" viewBox="0 0 640 640" width="640" height="640"><defs><path d="M250.18 37.69C191.4 48.07 180.72 69.81 180.72 109.9C180.72 113.43 180.72 131.08 180.72 162.85L319.65 162.85L319.65 180.5L180.72 180.5C149.44 180.5 132.06 180.5 128.59 180.5C88.21 180.5 52.86 204.77 41.8 250.93C29.04 303.85 28.48 336.87 41.8 392.12C51.67 433.25 75.26 462.56 115.63 462.56C118.82 462.56 134.74 462.56 163.4 462.56C163.4 424.47 163.4 403.32 163.4 399.08C163.4 353.23 203.07 312.78 250.18 312.78C264.06 312.78 375.07 312.78 388.95 312.78C427.57 312.78 458.41 280.98 458.41 242.19C458.41 228.96 458.41 123.13 458.41 109.9C458.41 72.25 426.65 43.97 388.95 37.69C365.08 33.72 340.32 31.91 316.57 32.02C292.82 32.13 270.14 34.16 250.18 37.69ZM267.51 101.16C267.51 115.75 255.79 127.55 241.44 127.55C227.04 127.55 215.37 115.75 215.37 101.16C215.37 86.51 227.04 74.6 241.44 74.6C255.79 74.6 267.51 86.51 267.51 101.16Z" id="eMeFtd6Px"></path><linearGradient id="gradientaeA2GElKl" gradientUnits="userSpaceOnUse" x1="32.02" y1="32.02" x2="349.77" y2="308.04"><stop style="stop-color: #5a9fd4;stop-opacity: 1" offset="0%"></stop><stop style="stop-color: #306998;stop-opacity: 1" offset="100%"></stop></linearGradient><path d="M475.73 242.19C475.73 290.02 435.19 330.27 388.95 330.27C375.07 330.27 264.06 330.27 250.18 330.27C212.18 330.27 180.72 362.8 180.72 400.87C180.72 414.09 180.72 519.92 180.72 533.15C180.72 570.8 213.46 592.95 250.18 603.75C294.16 616.68 336.33 619.01 388.95 603.75C423.92 593.62 458.41 573.24 458.41 533.15C458.41 529.62 458.41 511.97 458.41 480.2L319.65 480.2L319.65 462.56L458.41 462.56C500.09 462.56 523.24 462.56 527.87 462.56C568.25 462.56 583.29 434.39 597.33 392.12C611.84 348.61 611.22 306.76 597.33 250.93C587.36 210.74 568.3 180.5 527.87 180.5C524.4 180.5 507.02 180.5 475.73 180.5C475.73 217.51 475.73 238.08 475.73 242.19ZM423.76 541.89C423.76 556.54 412.09 568.45 397.69 568.45C383.34 568.45 371.62 556.54 371.62 541.89C371.62 527.3 383.34 515.5 397.69 515.5C412.09 515.5 423.76 527.3 423.76 541.89Z" id="b1WOFRJICg"></path><linearGradient id="gradientbDn7cf4d3" gradientUnits="userSpaceOnUse" x1="394.35" y1="537.44" x2="280.88" y2="375.36"><stop style="stop-color: #ffd43b;stop-opacity: 1" offset="0%"></stop><stop style="stop-color: #ffe873;stop-opacity: 1" offset="100%"></stop></linearGradient></defs><g><g><g><use xlink:href="#eMeFtd6Px" opacity="1" fill="url(#gradientaeA2GElKl)"></use><g><use xlink:href="#eMeFtd6Px" opacity="1" fill-opacity="0" stroke="#000000" stroke-width="1" stroke-opacity="0"></use></g></g><g><use xlink:href="#b1WOFRJICg" opacity="1" fill="url(#gradientbDn7cf4d3)"></use><g><use xlink:href="#b1WOFRJICg" opacity="1" fill-opacity="0" stroke="#000000" stroke-width="1" stroke-opacity="0"></use></g></g></g></g></svg>