<?xml version="1.0" encoding="UTF-8" standalone="no"?>
<!DOCTYPE svg PUBLIC "-//W3C//DTD SVG 1.1//EN" "http://www.w3.org/Graphics/SVG/1.1/DTD/svg11.dtd">
<svg version="1.1" xmlns="http://www.w3.org/2000/svg" xmlns:xlink="http://www.w3.org/1999/xlink" preserveAspectRatio="xMidYMid meet" viewBox="0 0 640 640" width="640" height="640"><defs><path d="M32.84 389.84C20.61 377.26 12.99 359.54 12.99 342.21C12.99 334.19 17.51 321.65 20.92 314.43C27.27 301.2 59.01 235.08 116.14 116.06L135.99 492.99C74.1 431.1 39.72 396.72 32.84 389.84Z" id="c9ix2vqwb"></path><path d="M385.98 32.76C376.99 23.72 358.2 12.91 342.34 12.91C328.69 12.91 315.31 15.65 306.62 20.84C293.93 27.19 230.45 58.93 116.18 116.06L489.13 135.91C427.24 74.02 392.86 39.63 385.98 32.76Z" id="bedsRJZmr"></path><path d="M508.98 616L508.98 508.86L322.49 449.35L151.9 508.86L258.99 616L508.98 616Z" id="b2QMm8RsAA"></path><path d="M136.03 493.04C137.09 494.1 142.38 499.38 151.9 508.9L508.98 508.9L334.41 310.53L116.18 116.1L116.18 437.47C118.84 463.91 125.46 482.43 136.03 493.04Z" id="b4BxHGGYYK"></path><path d="M116.14 116.06L508.94 508.86L616.08 508.86L616.08 262.85C539.91 186.69 497.6 144.37 489.13 135.91C471.32 118.01 455.46 116.06 433.57 116.06C391.25 116.06 285.44 116.06 116.14 116.06Z" id="c5DZroGy6R"></path><path d="M120.13 437.47C120.13 416.31 120.13 310.5 120.13 120.05L116.14 116.06C116.14 308.88 116.14 416.01 116.14 437.43C116.18 465.35 116.18 473.05 139.98 496.98C140.77 497.78 144.75 501.75 151.9 508.9L151.9 508.9L139.98 496.98C126.74 475.89 120.13 456.05 120.13 437.47Z" id="b2TzKOKd7Z"></path><path d="M612.13 504.91L505 504.91L508.98 508.86L616.12 508.86L616.12 262.9L612.13 258.91L612.13 504.91Z" id="a29P8lJZwx"></path><path d="M429.63 116.06C408.73 116.06 304.25 116.06 116.18 116.06L120.17 120.05C305.87 120.05 409.04 120.05 429.67 120.05C441.46 120.05 471.36 118.05 489.13 135.91C489.13 135.91 489.13 135.91 489.13 135.91C465.26 122.67 445.43 116.06 429.63 116.06Z" id="aOmvdsQ0n"></path><path d="M489.13 135.91C427.24 74.02 392.86 39.63 385.98 32.76C376.99 23.72 358.2 12.91 342.34 12.91C328.69 12.91 315.31 15.65 306.62 20.84C293.93 27.19 230.45 58.93 116.18 116.06C59.05 235.08 27.31 301.2 20.96 314.43C17.55 321.65 13.03 334.19 13.03 342.21C13.03 359.54 20.65 377.26 32.88 389.84C42.39 399.28 118.46 474.78 127.97 484.22C130.23 487.01 132.89 489.85 136.08 492.99C136.34 493.26 137.67 494.59 140.07 496.98L151.99 508.9L255.14 612.05L259.12 616.04L505.13 616.04L509.12 616.04L509.12 508.9L616.26 508.9L616.26 508.63L616.26 262.9L612.13 258.91L489.13 135.91Z" id="chmcS5pmZ"></path><radialGradient id="gradientb1oDhGhvOF" gradientUnits="userSpaceOnUse" cx="314.62" cy="314.46" dx="977.24" dy="280.08" r="663.51"><stop style="stop-color: #ffffff;stop-opacity: 0.1" offset="0%"></stop><stop style="stop-color: #ffffff;stop-opacity: 0" offset="100%"></stop></radialGradient></defs><g><g><g><use xlink:href="#c9ix2vqwb" opacity="1" fill="#01579b" fill-opacity="1"></use><g><use xlink:href="#c9ix2vqwb" opacity="1" fill-opacity="0" stroke="#000000" stroke-width="1" stroke-opacity="0"></use></g></g><g><use xlink:href="#bedsRJZmr" opacity="1" fill="#40c4ff" fill-opacity="1"></use><g><use xlink:href="#bedsRJZmr" opacity="1" fill-opacity="0" stroke="#000000" stroke-width="1" stroke-opacity="0"></use></g></g><g><use xlink:href="#b2QMm8RsAA" opacity="1" fill="#40c4ff" fill-opacity="1"></use><g><use xlink:href="#b2QMm8RsAA" opacity="1" fill-opacity="0" stroke="#000000" stroke-width="1" stroke-opacity="0"></use></g></g><g><use xlink:href="#b4BxHGGYYK" opacity="1" fill="#29b6f6" fill-opacity="1"></use><g><use xlink:href="#b4BxHGGYYK" opacity="1" fill-opacity="0" stroke="#000000" stroke-width="1" stroke-opacity="0"></use></g></g><g><use xlink:href="#c5DZroGy6R" opacity="1" fill="#01579b" fill-opacity="1"></use><g><use xlink:href="#c5DZroGy6R" opacity="1" fill-opacity="0" stroke="#000000" stroke-width="1" stroke-opacity="0"></use></g></g><g><use xlink:href="#b2TzKOKd7Z" opacity="1" fill="#ffffff" fill-opacity="1"></use><g><use xlink:href="#b2TzKOKd7Z" opacity="1" fill-opacity="0" stroke="#000000" stroke-width="1" stroke-opacity="0"></use></g></g><g><use xlink:href="#a29P8lJZwx" opacity="1" fill="#263238" fill-opacity="1"></use><g><use xlink:href="#a29P8lJZwx" opacity="1" fill-opacity="0" stroke="#000000" stroke-width="1" stroke-opacity="0"></use></g></g><g><use xlink:href="#aOmvdsQ0n" opacity="1" fill="#ffffff" fill-opacity="1"></use><g><use xlink:href="#aOmvdsQ0n" opacity="1" fill-opacity="0" stroke="#000000" stroke-width="1" stroke-opacity="0"></use></g></g><g><use xlink:href="#chmcS5pmZ" opacity="1" fill="url(#gradientb1oDhGhvOF)"></use><g><use xlink:href="#chmcS5pmZ" opacity="1" fill-opacity="0" stroke="#000000" stroke-width="1" stroke-opacity="0"></use></g></g></g></g></svg>